<?xml version="1.0" encoding="UTF-8"?>
<svg width="33px" height="24px" viewBox="0 0 33 24" version="1.1" xmlns="http://www.w3.org/2000/svg" xmlns:xlink="http://www.w3.org/1999/xlink">
    <!-- Generator: Sketch 44.1 (41455) - http://www.bohemiancoding.com/sketch -->
    <title>XMLID_186_ Copy 22</title>
    <desc>Created with Sketch.</desc>
    <defs></defs>
    <g id="Page-1" stroke="none" stroke-width="1" fill="none" fill-rule="evenodd">
        <g id="XMLID_186_-Copy-22" fill-rule="nonzero" fill="#F0F0F0">
            <circle id="XMLID_188_" cx="11.0769231" cy="11.6923077" r="2.46153846"></circle>
            <path d="M32.078611,15.7178513 L28.4234386,11.9934889 L32.078611,8.26912642 L32.078611,8.26912642 C32.7815288,7.55290288 32.7815288,6.38090071 32.078611,5.66467716 C31.3756933,4.94845361 30.2254642,4.94845361 29.5225464,5.66467716 L29.5225464,5.66467716 L25.867374,9.38903961 L20.1034483,3.51600651 C15.502532,-1.17200217 8.05160357,-1.17200217 3.45068724,3.51600651 C-1.15022908,8.20401519 -1.15022908,15.7959848 3.45068724,20.4839935 C8.05160357,25.1720022 15.502532,25.1720022 20.1034483,20.4839935 L20.1034483,20.4839935 L24.5893417,15.913185 L22.0332771,13.3087358 L17.5473837,17.8795442 L17.5473837,17.8795442 C14.3650832,21.1220836 9.20183265,21.1220836 6.01953219,17.8795442 C2.83723173,14.6370049 2.83723173,9.37601736 6.01953219,6.13347802 C9.20183265,2.89093869 14.3650832,2.89093869 17.5473837,6.13347802 L23.3113094,12.0065111 L23.3113094,12.0065111 L25.867374,14.6109604 L25.867374,14.6109604 L29.5225464,18.3353228 C30.2254642,19.0515464 31.3756933,19.0515464 32.078611,18.3353228 C32.7943091,17.6190993 32.7943091,16.4470971 32.078611,15.7178513 L32.078611,15.7178513 Z" id="XMLID_187_"></path>
        </g>
    </g>
</svg>